<?xml version="1.0" standalone="no"?>
<!DOCTYPE svg PUBLIC "-//W3C//DTD SVG 20010904//EN"
 "http://www.w3.org/TR/2001/REC-SVG-20010904/DTD/svg10.dtd">
<svg version="1.0" xmlns="http://www.w3.org/2000/svg"
 width="5000.000000pt" height="5000.000000pt" viewBox="0 0 5000.000000 5000.000000"
 preserveAspectRatio="xMidYMid meet">

<g transform="translate(0.000000,5000.000000) scale(0.100000,-0.100000)"
fill="#000000" stroke="none">
<path d="M13053 44273 l-2113 -3 0 -15468 c0 -10272 4 -15539 10 -15682 71
-1513 556 -2917 1431 -4145 410 -575 924 -1118 1484 -1566 1071 -856 2355
-1413 3710 -1608 410 -60 778 -81 1388 -81 l427 0 2 13553 c1 7453 2 16128 2
19277 l1 5725 -2115 0 c-1163 0 -3066 -1 -4227 -2z"/>
</g>
</svg>
